<svg id="logo" xmlns="http://www.w3.org/2000/svg" xmlns:xlink="http://www.w3.org/1999/xlink" viewBox="0 0 297.38 450.92"><defs><style>.cls-1,.cls-2,.cls-3,.cls-4{fill:none;stroke-miterlimit:10;}.cls-1,.cls-2,.cls-3{stroke-linecap:round;}.cls-1,.cls-2{stroke-width:7.47px;}.cls-1{stroke:url(#linear-gradient);}.cls-2{stroke:url(#linear-gradient-2);}.cls-3{stroke-width:5.6px;stroke:url(#linear-gradient-3);}.cls-4{stroke-width:6.73px;stroke:url(#linear-gradient-4);}.cls-5{fill:url(#linear-gradient-5);}</style><linearGradient id="linear-gradient" x1="7555.44" y1="310.16" x2="7654.81" y2="310.16" gradientTransform="matrix(-1, 0, 0, 1, 7811.8, 0)" gradientUnits="userSpaceOnUse"><stop offset="0.11" stop-color="#bbbaba"/><stop offset="0.28" stop-color="#fff"/><stop offset="0.41" stop-color="#333132"/><stop offset="0.48" stop-color="#4a4849"/><stop offset="0.55" stop-color="#b5b4b4"/><stop offset="0.89" stop-color="#6b6869"/><stop offset="0.91" stop-color="#686566"/><stop offset="0.93" stop-color="#5e5b5c"/><stop offset="0.95" stop-color="#4c4a4b"/><stop offset="0.97" stop-color="#343333"/><stop offset="0.98" stop-color="#151515"/><stop offset="0.99"/></linearGradient><linearGradient id="linear-gradient-2" x1="355" y1="310.16" x2="454.37" y2="310.16" gradientTransform="matrix(1, 0, 0, 1, 0, 0)" xlink:href="#linear-gradient"/><linearGradient id="linear-gradient-3" x1="305.59" y1="441.96" x2="308.74" y2="621.91" gradientUnits="userSpaceOnUse"><stop offset="0.11" stop-color="#bbbaba"/><stop offset="0.28" stop-color="#fff"/><stop offset="0.41" stop-color="#333132"/><stop offset="0.48" stop-color="#4a4849"/><stop offset="0.55" stop-color="#b5b4b4"/><stop offset="0.67" stop-color="#6b6869"/><stop offset="1" stop-color="#7d7d7d"/></linearGradient><linearGradient id="linear-gradient-4" x1="305.68" y1="353.14" x2="305.68" y2="444.21" gradientUnits="userSpaceOnUse"><stop offset="0.11" stop-color="#bbbaba"/><stop offset="0.28" stop-color="#fff"/><stop offset="0.41" stop-color="#333132"/><stop offset="0.48" stop-color="#4a4849"/><stop offset="0.55" stop-color="#b5b4b4"/><stop offset="0.67" stop-color="#6b6869"/><stop offset="1"/></linearGradient><linearGradient id="linear-gradient-5" x1="305.68" y1="454.29" x2="305.68" y2="648.92" gradientUnits="userSpaceOnUse"><stop offset="0.02" stop-color="#fff"/><stop offset="0.07" stop-color="#cecece"/><stop offset="0.15" stop-color="#8c8c8c"/><stop offset="0.21" stop-color="#5c5c5c"/><stop offset="0.26" stop-color="#3e3e3e"/><stop offset="0.29" stop-color="#333"/><stop offset="0.31" stop-color="#373737"/><stop offset="0.33" stop-color="#454545"/><stop offset="0.35" stop-color="#5b5b5b"/><stop offset="0.37" stop-color="#7a7a7a"/><stop offset="0.39" stop-color="#a1a1a1"/><stop offset="0.4" stop-color="silver"/><stop offset="0.41" stop-color="#b4b4b4"/><stop offset="0.42" stop-color="#858585"/><stop offset="0.44" stop-color="#5c5c5c"/><stop offset="0.46" stop-color="#3b3b3b"/><stop offset="0.48" stop-color="#212121"/><stop offset="0.5" stop-color="#0f0f0f"/><stop offset="0.52" stop-color="#040404"/><stop offset="0.54"/><stop offset="0.57" stop-color="#161616"/><stop offset="0.63" stop-color="#4f4f4f"/><stop offset="0.72" stop-color="#aaa"/><stop offset="0.74" stop-color="silver"/></linearGradient></defs><g id="Logo-2" data-name="Logo"><path id="Left_arm_upper" data-name="Left arm upper" class="cls-1" d="M171.09,174.65a162.78,162.78,0,0,0-6.49,20.9,130.76,130.76,0,0,0-3.6,21.62,111.45,111.45,0,0,0,3.6,36.76c3.89,14.36,9.57,23.75,16.58,35.32,9.69,16,20,27.69,26.67,35.31,5.49,6.25,11,12,20.9,23.79,6.26,7.46,10.12,12.39,13.69,19.46a85.41,85.41,0,0,1,6.49,18c2,7.59,4.16,15.55,3.6,25.95-.29,5.49-.45,10.24-2.88,15.86-1.67,3.85-5,11.88-13.69,15.85s-17.09,1.47-18.75,1a27,27,0,0,1-4.32-1.69,28.93,28.93,0,0,1-10.09-8.65,31.86,31.86,0,0,1-5-10.81,28.43,28.43,0,0,1-1.45-11.53,26.5,26.5,0,0,1,2.89-9.37c4.61-8.85,13.15-13.46,13-13.69s-5.85,5.83-12.25,5c-2.6-.32-4.7-1.84-7.21-3.6a31.79,31.79,0,0,1-6.19-5.7l-1.74-2.23" transform="translate(-156.99 -170.91)"/><path id="Right_arm_upper" data-name="Right arm upper" class="cls-2" d="M440.27,174.65a161.38,161.38,0,0,1,6.48,20.9,131.66,131.66,0,0,1,3.61,21.62,111.26,111.26,0,0,1-3.61,36.76c-3.88,14.36-9.57,23.75-16.57,35.32-9.69,16-20,27.69-26.67,35.31-5.49,6.25-11,12-20.9,23.79-6.26,7.46-10.12,12.39-13.7,19.46a85.87,85.87,0,0,0-6.48,18c-2,7.59-4.17,15.55-3.61,25.95.3,5.49.46,10.24,2.89,15.86,1.66,3.85,5,11.88,13.69,15.85s17.08,1.47,18.75,1a26.37,26.37,0,0,0,4.31-1.69,28.84,28.84,0,0,0,10.09-8.65,31.92,31.92,0,0,0,5.05-10.81A28.28,28.28,0,0,0,415,411.77a26.4,26.4,0,0,0-2.88-9.37c-4.62-8.85-13.15-13.46-13-13.69s5.85,5.83,12.26,5c2.59-.32,4.69-1.84,7.2-3.6a31.21,31.21,0,0,0,6.19-5.7l1.74-2.23" transform="translate(-156.99 -170.91)"/><path id="Logo_lower_part" data-name="Logo lower part" class="cls-3" d="M418.47,446.73A42,42,0,0,1,401.9,459c-10.82,4.27-15.46.28-28.11,5-4.46,1.67-14.36,5.57-18.74,15.13-1.17,2.55-3,6.62-1.44,9.37,4.13,7.14,28.55-.06,35.31-2.16A287.77,287.77,0,0,0,368,515.92a295.49,295.49,0,0,0-37.48,94.42,22.49,22.49,0,0,1-7.92,6.48,23.3,23.3,0,0,1-15.86,1.44H304.6a23.3,23.3,0,0,1-15.86-1.44,22.55,22.55,0,0,1-7.93-6.48,295.25,295.25,0,0,0-37.48-94.42,287.77,287.77,0,0,0-20.9-29.55c6.76,2.1,31.18,9.3,35.32,2.16,1.59-2.75-.28-6.82-1.44-9.37C251.93,469.6,242,465.7,237.57,464c-12.65-4.77-17.3-.78-28.11-5a42,42,0,0,1-16.58-12.25" transform="translate(-156.99 -170.91)"/><path id="Mic" class="cls-4" d="M308,356.51h-4.62a19,19,0,0,0-15.56,8.1l-8.17,11.7a19,19,0,0,0-3.42,10.87v29l17.26,24.7h24.4l17.25-24.7v-29a19,19,0,0,0-3.42-10.87l-8.17-11.7A19,19,0,0,0,308,356.51Z" transform="translate(-156.99 -170.91)"/><path id="Mic_handle" data-name="Mic handle" class="cls-5" d="M333.05,471.58l-13.12,2.79a68.49,68.49,0,0,1-28.51,0l-13.12-2.79,12.24,23.52c.2,3.22.48,7.7.67,10.79.23,3.66.6,9.58.82,13.16s.59,9.51.82,13.16.58,9.23.76,12.4.57,9.09.82,13.16.62,9.94.81,13,.38,6.16.44,6.78l.08,1.15,2.49-.07a1.92,1.92,0,0,1,2,1.79v0c.09,1.44.24,3.83.34,5.3s.24,3.71.32,5,.23,3.66.34,5.29.26,4,.33,5.26.16,2.48.19,2.73l0,.46,2.05,0,3.67-.09c.9,0,1.65-.06,1.67-.08a1.36,1.36,0,0,0,.06-.41c0-.21.1-1.23.17-2.26s.21-2.76.29-3.81.21-2.78.28-3.82.2-2.62.27-3.54.19-2.52.27-3.58.21-2.78.28-3.81.15-2,.23-3a1.93,1.93,0,0,1,1.83-1.77,10.91,10.91,0,0,0,1.28-.09,3.94,3.94,0,0,0,.16-1c0-.52.23-3,.43-5.63s.52-6.83.73-9.46.53-6.89.73-9.47.51-6.53.68-8.81.48-6.27.68-8.9.55-6.9.73-9.47c.42-5.45,1-12.55,1.43-18.38.25-3.26.57-7.49.88-11.44Z" transform="translate(-156.99 -170.91)"/></g></svg>