<?xml version="1.0" encoding="utf-8"?>
<!-- Generator: Adobe Illustrator 26.0.0, SVG Export Plug-In . SVG Version: 6.00 Build 0)  -->
<svg version="1.1" id="Layer_1" xmlns="http://www.w3.org/2000/svg" xmlns:xlink="http://www.w3.org/1999/xlink" x="0px" y="0px"
	 viewBox="0 0 80 80" style="enable-background:new 0 0 80 80;" xml:space="preserve">
<style type="text/css">
	.st0{fill:#FFFFFF;}
</style>
<g>
	<circle cx="39.7" cy="40" r="25.8"/>
	<path class="st0" d="M39.7,3.9C19.8,3.9,3.6,20,3.6,40s16.2,36.1,36.1,36.1S75.9,60,75.9,40S59.7,3.9,39.7,3.9z M30.2,21.1L52,33.7
		l-5.8,5.8L27.8,21C28.5,20.6,29.4,20.7,30.2,21.1z M26.3,56.7V23.3c0-0.7,0.3-1.4,0.8-1.9L45.7,40L27.1,58.5
		C26.6,58.1,26.3,57.4,26.3,56.7z M30.2,58.9c-0.8,0.5-1.7,0.5-2.5,0.1l18.5-18.5l5.8,5.9L30.2,58.9z M59.1,42.2l-6.4,3.7l-6-5.9
		l5.9-5.9l6.5,3.7c1.2,0.7,1.6,2.3,0.9,3.5C59.7,41.7,59.4,42,59.1,42.2L59.1,42.2z"/>
</g>
</svg>
